<?xml version="1.0" standalone="no"?>
<!DOCTYPE svg PUBLIC "-//W3C//DTD SVG 20010904//EN"
 "http://www.w3.org/TR/2001/REC-SVG-20010904/DTD/svg10.dtd">
<svg version="1.0" xmlns="http://www.w3.org/2000/svg"
 width="1000.000000pt" height="1000.000000pt" viewBox="0 0 1000.000000 1000.000000"
 preserveAspectRatio="xMidYMid meet">
<metadata>
Created by potrace 1.11, written by Peter Selinger 2001-2013
</metadata>
<g transform="translate(0.000000,1000.000000) scale(0.100000,-0.100000)"
fill="#000000" stroke="none">
<path d="M4805 6919 c-475 -62 -772 -324 -922 -814 -29 -96 -68 -277 -78 -360
-4 -32 -9 -68 -11 -80 -19 -95 -27 -683 -11 -834 59 -587 236 -976 542 -1193
289 -206 791 -247 1152 -95 426 180 668 624 732 1347 16 175 6 601 -18 790
-94 731 -384 1120 -915 1226 -95 19 -366 26 -471 13z m405 -383 c155 -43 300
-161 374 -304 124 -240 176 -575 170 -1097 -1 -143 -5 -271 -8 -285 -2 -14 -7
-56 -11 -95 -15 -161 -60 -356 -112 -489 -84 -215 -247 -370 -443 -421 -96
-26 -249 -28 -354 -5 -341 75 -518 360 -581 935 -14 132 -14 748 0 860 64 498
185 740 430 856 116 55 194 70 350 64 72 -2 154 -11 185 -19z"/>
<path d="M4704 5511 c-2 -2 -4 -143 -4 -313 l0 -308 295 0 295 0 0 313 0 312
-291 0 c-160 0 -293 -2 -295 -4z"/>
<path d="M8041 6852 c-20 -43 -99 -138 -162 -195 -162 -147 -422 -272 -667
-321 -82 -17 -239 -34 -284 -31 l-28 2 0 -190 0 -189 93 6 c282 19 599 120
817 261 70 45 176 145 185 176 4 10 11 19 16 19 5 0 9 -487 9 -1260 l0 -1260
-47 -1 c-27 0 -274 0 -550 0 l-503 0 0 -185 0 -184 1220 0 1219 0 -2 183 -2
182 -430 2 c-236 1 -435 2 -440 2 -7 1 -11 486 -11 1504 l0 1502 -211 1 -211
1 -11 -25z"/>
<path d="M682 6295 l3 -197 510 -217 c281 -120 740 -316 1020 -436 631 -268
599 -254 594 -259 -4 -4 -1655 -711 -1966 -842 l-163 -69 -1 -95 c-1 -180 1
-283 5 -287 3 -3 150 56 328 131 178 75 735 308 1238 519 l915 383 3 260 2
259 -122 51 c-343 143 -2304 968 -2356 991 -10 4 -12 -35 -10 -192z"/>
</g>
</svg>
