<?xml version="1.0" standalone="no"?>
<!DOCTYPE svg PUBLIC "-//W3C//DTD SVG 20010904//EN"
 "http://www.w3.org/TR/2001/REC-SVG-20010904/DTD/svg10.dtd">
<svg version="1.0" xmlns="http://www.w3.org/2000/svg"
 width="1200.000000pt" height="1200.000000pt" viewBox="0 0 1200.000000 1200.000000"
 preserveAspectRatio="xMidYMid meet">
<metadata>
Created by potrace 1.11, written by Peter Selinger 2001-2013
</metadata>
<g transform="translate(0.000000,1200.000000) scale(0.100000,-0.100000)"
fill="#000000" stroke="none">
<path d="M5780 8055 c-604 -84 -926 -524 -998 -1365 -15 -173 -5 -799 12 -830
2 -3 6 -28 10 -55 28 -236 117 -517 222 -695 209 -356 549 -530 1007 -516 323
10 557 103 753 300 239 238 388 639 422 1131 13 191 8 612 -9 728 -4 28 -10
76 -13 106 -4 30 -9 64 -11 75 -2 12 -7 38 -10 60 -3 21 -16 82 -30 136 -100
396 -276 658 -539 805 -88 49 -225 96 -321 111 -22 3 -58 9 -81 13 -66 12
-312 10 -414 -4z m430 -379 c155 -43 300 -161 374 -304 87 -169 142 -406 164
-712 13 -196 6 -665 -12 -765 -2 -11 -7 -47 -11 -80 -35 -297 -146 -561 -289
-692 -110 -101 -251 -154 -421 -158 -464 -12 -708 296 -772 975 -10 109 -10
666 0 790 23 284 94 542 188 687 93 143 223 229 404 269 77 17 299 11 375 -10z"/>
<path d="M5700 6343 l0 -313 295 0 295 0 0 310 c0 171 -3 310 -7 311 -5 1
-137 2 -296 2 l-287 2 0 -312z"/>
<path d="M9026 7965 c-179 -280 -632 -504 -1043 -517 l-83 -3 0 -189 0 -188
93 6 c293 21 605 121 820 263 73 48 173 144 182 174 4 11 11 19 16 19 5 0 9
-487 9 -1260 l0 -1260 -67 0 c-38 -1 -285 -1 -550 -1 l-483 0 0 -185 0 -184
1218 2 1217 3 1 182 2 182 -442 -1 -441 0 -1 1483 c-1 816 -2 1494 -3 1505 -1
22 -3 22 -207 22 l-205 -1 -33 -52z"/>
<path d="M1679 7582 c-2 -183 1 -336 8 -342 4 -4 233 -103 508 -220 1298 -552
1533 -653 1574 -672 l44 -20 -29 -13 c-31 -15 -115 -51 -1129 -485 -363 -155
-678 -290 -700 -300 -22 -9 -93 -39 -157 -66 l-118 -49 0 -50 c-3 -166 -1
-328 3 -332 3 -2 562 229 1244 515 l1238 518 3 260 2 259 -617 259 c-702 295
-980 412 -1478 621 -192 81 -360 151 -372 156 -22 8 -23 6 -24 -39z"/>
</g>
</svg>
