<?xml version="1.0" standalone="no"?>
<!DOCTYPE svg PUBLIC "-//W3C//DTD SVG 20010904//EN"
 "http://www.w3.org/TR/2001/REC-SVG-20010904/DTD/svg10.dtd">
<svg version="1.0" xmlns="http://www.w3.org/2000/svg"
 width="1200.000000pt" height="1200.000000pt" viewBox="0 0 1200.000000 1200.000000"
 preserveAspectRatio="xMidYMid meet">
<metadata>
Created by potrace 1.11, written by Peter Selinger 2001-2013
</metadata>
<g transform="translate(0.000000,1200.000000) scale(0.100000,-0.100000)"
fill="#000000" stroke="none">
<path d="M5820 8434 c-192 -20 -324 -50 -466 -105 -554 -215 -854 -767 -931
-1709 -10 -122 -10 -694 0 -825 49 -653 234 -1153 542 -1460 253 -253 583
-376 1013 -376 637 -1 1076 276 1343 847 90 193 175 507 205 759 3 22 7 49 9
60 15 75 31 403 29 615 -2 277 -9 392 -40 630 -45 350 -149 690 -282 916 -204
349 -504 554 -922 629 -89 16 -411 28 -500 19z m360 -484 c411 -74 636 -361
735 -940 40 -234 50 -389 50 -805 0 -478 -16 -653 -86 -943 -114 -471 -335
-729 -691 -808 -102 -23 -299 -23 -408 0 -310 65 -518 268 -642 625 -58 169
-108 447 -124 686 -3 50 -7 110 -9 135 -6 69 -6 534 0 630 6 90 22 275 31 350
7 65 42 243 65 332 74 292 209 506 394 623 100 63 264 116 395 127 70 6 227 0
290 -12z"/>
<path d="M5610 6213 l0 -403 380 0 380 0 0 400 c0 220 -3 401 -7 401 -5 1
-176 2 -380 3 l-373 1 0 -402z"/>
<path d="M9921 8327 c-68 -119 -216 -269 -361 -365 -289 -191 -627 -300 -1014
-327 -43 -3 -81 -7 -85 -9 -5 -3 -7 -413 -2 -462 2 -26 293 2 481 47 427 103
812 313 927 507 14 23 27 42 29 42 2 0 4 -736 4 -1635 l0 -1635 -707 0 -708 0
0 -235 0 -235 1568 0 1567 0 1 85 c0 47 0 141 0 210 0 69 0 136 0 150 l-1 25
-564 0 c-442 0 -565 3 -568 13 -2 6 -4 879 -4 1940 l1 1927 -270 0 -270 0 -24
-43z"/>
<path d="M421 7621 l0 -248 272 -116 c150 -64 416 -178 592 -253 176 -75 610
-260 965 -411 355 -151 663 -283 685 -293 22 -10 86 -37 143 -60 56 -24 101
-44 100 -45 -2 -2 -457 -197 -1013 -435 -555 -238 -1174 -503 -1375 -589
l-365 -156 -2 -247 c-1 -137 0 -248 3 -248 3 0 463 192 1022 426 560 235 1037
435 1062 445 25 10 286 119 580 242 l535 225 3 335 2 334 -72 30 c-77 32 -541
227 -1388 583 -278 117 -545 230 -595 250 -49 21 -274 115 -500 210 -461 194
-644 270 -650 270 -2 0 -4 -112 -4 -249z"/>
</g>
</svg>
